<?xml version="1.0" encoding="utf-8"?>
<!-- Generator: Adobe Illustrator 19.2.1, SVG Export Plug-In . SVG Version: 6.00 Build 0)  -->
<svg version="1.1" id="Capa_1" xmlns="http://www.w3.org/2000/svg" xmlns:xlink="http://www.w3.org/1999/xlink" x="0px" y="0px"
	 viewBox="0 0 792 612" style="enable-background:new 0 0 792 612;" xml:space="preserve">
<style type="text/css">
	.st0{fill:none;}
</style>
<g transform="matrix(5.54354,0,0,5.54354,-1207.4,-14071.6)">
	<g>
		<path d="M289.3,2542.7c6.9,0,13.5,1.3,19.8,4c6.1,2.6,11.5,6.2,16.2,10.9c4.7,4.7,8.4,10.1,10.9,16.2c2.7,6.3,4,12.9,4,19.8
			s-1.3,13.5-4,19.8c-2.6,6.1-6.2,11.5-10.9,16.2c-4.7,4.7-10.1,8.4-16.2,10.9c-6.3,2.7-12.9,4-19.8,4c-6.9,0-13.5-1.3-19.8-4
			c-6.1-2.6-11.5-6.2-16.2-10.9c-4.7-4.7-8.4-10.1-10.9-16.2c-2.7-6.3-4-12.9-4-19.8s1.3-13.5,4-19.8c2.6-6.1,6.2-11.5,10.9-16.2
			c4.7-4.7,10.1-8.4,16.2-10.9C275.7,2544,282.4,2542.7,289.3,2542.7 M289.3,2539.1c-30.1,0-54.5,24.4-54.5,54.5
			s24.4,54.5,54.5,54.5c30.1,0,54.5-24.4,54.5-54.5S319.4,2539.1,289.3,2539.1L289.3,2539.1z"/>
	</g>
</g>
<g transform="matrix(5.49261,0,0,5.49261,-4804.81,-13103.1)">
	<g transform="matrix(1,0,0,1,-81.4052,61.198)">
		<path class="st0" d="M1009,2355.7h24.3l14.4,14.4v34.6H1009V2355.7z"/>
	</g>
	<g transform="matrix(1,0,0,1,-81.4052,61.198)">
		<path d="M1047.7,2370.1v34.6H1009v-49h24.3C1038.1,2360.5,1042.9,2365.3,1047.7,2370.1z M1012,2358.7v42.8h32.6v-30.2l-12.6-12.6
			C1025.4,2358.7,1018.7,2358.7,1012,2358.7z"/>
	</g>
	<g transform="matrix(-0.994491,-2.30853e-16,-1.92378e-16,0.994491,1841.63,1.06746)">
		<path class="st0" d="M894.7,2431.6v11.8h-11.8L894.7,2431.6z"/>
	</g>
	<g transform="matrix(-0.994491,-2.30853e-16,-1.92378e-16,0.994491,1841.63,1.06746)">
		<path d="M880.4,2443.7l0.5,1.3h15.2v-15.2l-1.3-0.5C890.1,2434,885.2,2438.8,880.4,2443.7z M893.1,2441.9h-6.6l6.6-6.6
			C893.1,2437.5,893.1,2439.7,893.1,2441.9z"/>
	</g>
	<g transform="matrix(0.268688,0,0,0.268688,652.905,1799.72)">
		<path d="M1086.6,2392.2l-22.1,20.2l22.1,20.3l-7.7,8.4l-31.3-28.7l31.3-28.6C1081.5,2386.6,1084,2389.4,1086.6,2392.2z"/>
	</g>
	<g transform="matrix(-0.268688,-3.29048e-17,3.29048e-17,-0.268688,1187.76,3073.3)">
		<path d="M849.7,2327.5l31.3-28.6l7.7,8.4l-22.1,20.2l22.1,20.3l-7.7,8.4C870.5,2346.6,860.1,2337,849.7,2327.5z"/>
	</g>
</g>
</svg>
