<?xml version="1.0" encoding="utf-8"?>
<!-- Generator: Adobe Illustrator 19.2.1, SVG Export Plug-In . SVG Version: 6.00 Build 0)  -->
<svg version="1.1" id="Capa_1" xmlns="http://www.w3.org/2000/svg" xmlns:xlink="http://www.w3.org/1999/xlink" x="0px" y="0px"
	 viewBox="0 0 792 612" style="enable-background:new 0 0 792 612;" xml:space="preserve">
<g transform="matrix(1.00927,0,0,1.00927,653.716,283.739)">
	<g>
		<path d="M-255.4-257.7c37.8,0,74.4,7.4,108.9,22c33.3,14.1,63.2,34.3,88.9,60c25.7,25.7,45.9,55.6,60,88.9
			C17-52.4,24.4-15.7,24.4,22S17,96.4,2.4,130.9c-14.1,33.3-34.3,63.2-60,88.9c-25.7,25.7-55.6,45.9-88.9,60
			c-34.5,14.6-71.1,22-108.9,22s-74.4-7.4-108.9-22c-33.3-14.1-63.2-34.3-88.9-60c-25.7-25.7-45.9-55.6-60-88.9
			c-14.6-34.5-22-71.1-22-108.9s7.4-74.4,22-108.9c14.1-33.3,34.3-63.2,60-88.9c25.7-25.7,55.6-45.9,88.9-60
			C-329.8-250.3-293.1-257.7-255.4-257.7 M-255.4-277.5c-165.4,0-299.5,134.1-299.5,299.5s134.1,299.5,299.5,299.5
			S44.2,187.5,44.2,22S-89.9-277.5-255.4-277.5L-255.4-277.5z"/>
	</g>
</g>
<g transform="matrix(1.17521,0,0,1.17521,-213.131,-475.014)">
	<path d="M645.5,746.1h-87.6l-23.8,54.2l-23.8-54.2h-87.6V592.8h222.8C645.5,643.9,645.5,695,645.5,746.1z M437,607.2v124.6h82.6
		l14.5,32.9l14.5-32.9h82.6V607.2C566.5,607.2,501.8,607.2,437,607.2z"/>
</g>
<g transform="matrix(1.04172,0,0,1.04172,-100.589,-101.094)">
	<path d="M565.7,276.3v16.1H350.9v141.2h-16.1V276.3C411.8,276.3,488.7,276.3,565.7,276.3z"/>
</g>
</svg>
