<?xml version="1.0" encoding="utf-8"?>
<!-- Generator: Adobe Illustrator 19.2.1, SVG Export Plug-In . SVG Version: 6.00 Build 0)  -->
<svg version="1.1" id="Capa_1" xmlns="http://www.w3.org/2000/svg" xmlns:xlink="http://www.w3.org/1999/xlink" x="0px" y="0px"
	 viewBox="0 0 792 612" style="enable-background:new 0 0 792 612;" xml:space="preserve">
<g transform="matrix(1.00927,0,0,1.00927,652.178,137.082)">
	<g>
		<path d="M-253.8-112.4c37.8,0,74.4,7.4,108.9,22c33.3,14.1,63.2,34.3,88.9,60c25.7,25.7,45.9,55.6,60,88.9
			c14.6,34.5,22,71.1,22,108.9s-7.4,74.4-22,108.9c-14.1,33.3-34.3,63.2-60,88.9c-25.7,25.7-55.6,45.9-88.9,60
			c-34.5,14.6-71.1,22-108.9,22s-74.4-7.4-108.9-22c-33.3-14.1-63.2-34.3-88.9-60c-25.7-25.7-45.9-55.6-60-88.9
			c-14.6-34.5-22-71.1-22-108.9s7.4-74.4,22-108.9c14.1-33.3,34.3-63.2,60-88.9c25.7-25.7,55.6-45.9,88.9-60
			C-328.2-105-291.6-112.4-253.8-112.4 M-253.8-132.2c-165.4,0-299.5,134.1-299.5,299.5s134.1,299.5,299.5,299.5
			S45.7,332.7,45.7,167.3S-88.4-132.2-253.8-132.2L-253.8-132.2z"/>
	</g>
</g>
<g transform="matrix(0.0763596,-0.0763596,0.0881511,0.0881511,903.982,2746.16)">
	<path d="M13002.3-16570c6.5,5.7,12.8,11.6,18.9,17.6c11.4,11.2,22.2,23,32.2,35.1c39.8,48.2,68.7,102.9,85.6,160.3
		c8.1,27.6,13.5,55.8,16.2,84.1c1.2,12.7,1.8,25.3,1.9,38c0.5,122.7,0.3,245.5-0.1,368.2c-0.2,16.2-1.1,32.4-2.9,48.5
		c-3.7,32.2-10.9,64.1-21.6,95.2c-12.7,36.7-30.3,72.2-52.7,105.3c-30.7,45.4-70.4,86.3-117.7,119.4c-21.4,15-44.4,28.4-68.5,39.8
		c-27.8,13.1-57.1,23.7-87.5,31.2c-25.1,6.3-50.8,10.5-76.8,12.6c-12.2,1-24.5,1.5-36.7,1.6c-31.7,0.1-63.5,0.2-95.2,0.1
		c-13.3-0.1-26.6-0.7-39.8-1.9c-25-2.2-49.8-6.4-73.9-12.4c-30.4-7.6-59.9-18.2-87.7-31.4c-24.2-11.5-47.2-24.9-68.7-39.9
		c-47.4-33.2-87.3-74.2-118.2-119.6c-22.5-33.1-40.3-68.7-53.1-105.5c-10.8-31.1-18.1-63-21.8-95.3c-1.9-16.1-2.8-32.4-2.9-48.6
		c-0.4-121.2,0-242.4,0-363.6c0.1-13.9,0.6-27.7,1.9-41.5c2.6-28.2,7.9-56.3,15.9-83.7c9.7-33.5,23.5-66.1,41.1-97.1
		c25.3-44.4,58.5-85.3,99-120.3c13.9-12,28.5-23.2,44-33.7c7.1-4.8,14.4-9.4,21.8-13.8l88.9,110.6c-2.3,1.4-2.3,1.4-4.5,2.7
		c-2.1,1.3-2.1,1.3-4.2,2.6c-4.9,3.2-9.7,6.4-14.4,9.8c-8.9,6.4-17.3,13.2-25.4,20.4c-48.3,43.1-80.9,98.4-96.7,156.7
		c-5.1,18.5-8.4,37.4-10.2,56.4c-0.9,9.3-1.3,18.7-1.4,28.1c-0.5,121.9-0.4,243.7,0,365.6c0.1,9.9,0.6,19.8,1.5,29.7
		c1.8,19.1,5.3,38.1,10.5,56.8c15.9,57,47.9,111,94.9,153.5c11.2,10.1,23.1,19.5,35.9,28.1c13.9,9.3,28.7,17.7,44.2,24.8
		c17.4,8,35.7,14.4,54.7,19c14.6,3.6,29.6,6.1,44.8,7.4c8.3,0.7,16.7,1.1,25.1,1.2c31.6,0.1,63.2,0.2,94.9-0.1
		c8.4-0.1,16.7-0.6,25-1.3c15.1-1.4,30-4,44.6-7.6c18.9-4.7,37.1-11.2,54.4-19.2c15.4-7.2,30.1-15.6,43.8-24.9
		c12.6-8.6,24.5-18,35.5-28.2c45.4-41.6,76.4-94.3,92.2-149.7c5.5-19.3,9.1-38.9,11-58.7c0.9-9.2,1.3-18.4,1.5-27.6
		c1.2-122.9,0.6-245.7,0.1-368.6c-0.1-9.4-0.6-18.8-1.4-28.1c-1.9-19.9-5.6-39.7-11.1-59.1c-17.1-59.8-52.1-116.3-103.4-159.4
		c-9-7.5-18.4-14.6-28.3-21.2c-4.9-3.3-10-6.4-15.1-9.5l88.1-111.2c11.8,7,23.3,14.4,34.3,22.3c11.2,8,21.8,16.4,32.2,25.1
		C12999.5-16572.4,12999.5-16572.4,13002.3-16570z"/>
</g>
<g transform="matrix(-0.0763596,0.0763596,-0.0881511,-0.0881511,930.739,2742.91)">
	<path d="M-12804.5,18064.9c-5.6-4.9-11.1-9.9-16.4-15c-12-11.6-23.4-23.7-34-36.3c-39.9-47.6-69-101.8-86.4-158.6
		c-8.5-27.9-14.3-56.4-17.2-85.1c-1.5-14.3-2.2-28.6-2.3-42.9c-0.4-121.2,0-242.4,0-363.6c0.1-13.9,0.6-27.7,1.9-41.5
		c2.6-28.2,7.9-56.3,15.9-83.7c10.1-34.6,24.4-68.3,42.9-100.2c25-43.1,57.7-83,97.2-117.2c13.9-12,28.5-23.2,44-33.7
		c7.1-4.8,14.4-9.4,21.8-13.8l88.9,110.6c-2.3,1.4-2.3,1.4-4.5,2.7c-2.1,1.3-2.1,1.3-4.2,2.6c-4.9,3.2-9.7,6.4-14.4,9.8
		c-8.9,6.4-17.3,13.2-25.4,20.4c-48.3,43.1-80.9,98.4-96.8,156.7c-5.1,18.5-8.4,37.4-10.2,56.4c-0.9,9.3-1.3,18.7-1.4,28.1
		c-0.5,121.9-0.4,243.7,0,365.6c0.1,9.2,0.5,18.4,1.3,27.6c1.8,19.8,5.3,39.5,10.7,58.9c15.9,57,47.9,111,94.8,153.5
		c11.2,10.1,23.2,19.5,35.9,28.1c13.9,9.4,28.7,17.7,44.2,24.8c17.4,8,35.8,14.4,54.7,19c14.6,3.6,29.6,6.1,44.8,7.4
		c8.3,0.7,16.7,1.1,25.1,1.2c31.6,0.1,63.2,0.2,94.9-0.1c8.4-0.1,16.7-0.6,25-1.3c15.1-1.4,30-4,44.6-7.6
		c18.9-4.7,37.1-11.2,54.4-19.2c15.4-7.2,30.1-15.6,43.8-24.9c12.6-8.6,24.5-18.1,35.5-28.2c46-42.1,77.2-95.5,92.7-151.7
		c5.4-19.3,8.9-39,10.7-58.8c0.8-9.2,1.2-18.4,1.3-27.6c0.4-122.2,0.6-244.3,0.1-366.5c-0.1-9.4-0.6-18.8-1.4-28.1
		c-1.9-19.9-5.6-39.7-11.1-59.1c-17.1-59.8-52.1-116.3-103.4-159.4c-9-7.5-18.4-14.6-28.3-21.2c-4.9-3.3-10-6.4-15.1-9.5l88.1-111.2
		c7.5,4.4,14.8,9,22,13.8c13.5,9,26.5,18.7,38.8,28.9c36.6,30.3,67.8,65.4,92.7,103.5c18.9,28.9,34.3,59.6,46,91.2
		c12.1,32.8,20.2,66.6,24.2,100.8c1.4,11.3,2.3,22.6,2.7,34c0.2,5.1,0.3,10.2,0.4,15.3c0.5,122.7,0.3,245.5-0.1,368.2
		c-0.2,16.2-1.1,32.4-2.9,48.5c-3.7,32.2-10.9,64.1-21.6,95.2c-12.7,36.7-30.3,72.2-52.7,105.3c-30.7,45.4-70.4,86.3-117.7,119.4
		c-21.4,15-44.3,28.3-68.5,39.8c-27.8,13.1-57.1,23.7-87.5,31.2c-24.1,6-48.8,10.2-73.8,12.4c-13.2,1.2-26.5,1.8-39.8,1.9
		c-31.7,0.1-63.5,0.2-95.2,0.1c-10.2-0.1-20.5-0.4-30.7-1.2c-20.1-1.4-40.1-4.1-59.8-8c-51.2-10.1-100-28.6-143.8-53.7
		c-16.5-9.4-32.2-19.8-47.2-30.9c-7.5-5.6-14.8-11.4-21.9-17.4C-12800.3,18068.5-12802.4,18066.7-12804.5,18064.9z"/>
</g>
<g transform="matrix(0.707107,-0.707107,0.707107,0.707107,-2000.11,1828.63)">
	<path d="M2778.6,680.4h-16.8V551.4h16.8C2778.6,594.4,2778.6,637.3,2778.6,680.4z"/>
</g>
</svg>
